# xmcd
#
# Track frame offsets: 
#        150
#        29532
#        45109
#        60871
#        95045
#
# Disc length: 1512 seconds
#
# Revision: 0
# Processed by: cddbd v1.5.1PL0 Copyright (c) Steve Scherf et al.
# Submitted via: ExactAudioCopy v0.95a5
#
DISCID=3205e605
DTITLE=Warren Haynes and The Rich Hippies - Warren's House
DYEAR=1985
DGENRE=Blues
TTITLE0=You Can't Judge A Book By It's Cover
TTITLE1=Wild Fire
TTITLE2=The Letter
TTITLE3=Loan Me A Dime
TTITLE4=Trouble No More
EXTD=
EXTT0=
EXTT1=
EXTT2=
EXTT3=
EXTT4=
PLAYORDER=
